<mxfile host="app.diagrams.net" modified="2023-04-03T23:37:51.092Z" agent="Mozilla/5.0 (Windows NT 10.0; Win64; x64) AppleWebKit/537.36 (KHTML, like Gecko) Chrome/111.0.0.0 Safari/537.36" etag="v3e_HDnurq2zm9fDBVTK" version="21.1.4" type="device">
  <diagram name="Page-1" id="ngoK2wzjkie25mrIc5c_">
    <mxGraphModel dx="882" dy="539" grid="1" gridSize="10" guides="1" tooltips="1" connect="1" arrows="1" fold="1" page="1" pageScale="1" pageWidth="850" pageHeight="1100" math="0" shadow="0">
      <root>
        <mxCell id="0" />
        <mxCell id="1" parent="0" />
        <mxCell id="98AAtf0gcxnXVKYXleeJ-36" style="edgeStyle=orthogonalEdgeStyle;rounded=0;orthogonalLoop=1;jettySize=auto;html=1;exitX=1;exitY=0.5;exitDx=0;exitDy=0;" edge="1" parent="1" source="98AAtf0gcxnXVKYXleeJ-1" target="98AAtf0gcxnXVKYXleeJ-2">
          <mxGeometry relative="1" as="geometry" />
        </mxCell>
        <mxCell id="98AAtf0gcxnXVKYXleeJ-1" value="User" style="rounded=1;whiteSpace=wrap;html=1;" vertex="1" parent="1">
          <mxGeometry x="80" y="80" width="120" height="60" as="geometry" />
        </mxCell>
        <mxCell id="98AAtf0gcxnXVKYXleeJ-37" style="edgeStyle=orthogonalEdgeStyle;rounded=0;orthogonalLoop=1;jettySize=auto;html=1;exitX=1;exitY=0.5;exitDx=0;exitDy=0;entryX=0;entryY=0.5;entryDx=0;entryDy=0;" edge="1" parent="1" source="98AAtf0gcxnXVKYXleeJ-2" target="98AAtf0gcxnXVKYXleeJ-3">
          <mxGeometry relative="1" as="geometry" />
        </mxCell>
        <mxCell id="98AAtf0gcxnXVKYXleeJ-2" value="Load balancer" style="rounded=1;whiteSpace=wrap;html=1;" vertex="1" parent="1">
          <mxGeometry x="280" y="80" width="120" height="60" as="geometry" />
        </mxCell>
        <mxCell id="98AAtf0gcxnXVKYXleeJ-38" style="edgeStyle=orthogonalEdgeStyle;rounded=0;orthogonalLoop=1;jettySize=auto;html=1;exitX=1;exitY=0.5;exitDx=0;exitDy=0;entryX=0;entryY=0.5;entryDx=0;entryDy=0;" edge="1" parent="1" source="98AAtf0gcxnXVKYXleeJ-3" target="98AAtf0gcxnXVKYXleeJ-4">
          <mxGeometry relative="1" as="geometry" />
        </mxCell>
        <mxCell id="98AAtf0gcxnXVKYXleeJ-3" value="Distributed web servers" style="rounded=1;whiteSpace=wrap;html=1;" vertex="1" parent="1">
          <mxGeometry x="480" y="80" width="120" height="60" as="geometry" />
        </mxCell>
        <mxCell id="98AAtf0gcxnXVKYXleeJ-9" style="edgeStyle=orthogonalEdgeStyle;rounded=0;orthogonalLoop=1;jettySize=auto;html=1;exitX=0.25;exitY=1;exitDx=0;exitDy=0;" edge="1" parent="1" source="98AAtf0gcxnXVKYXleeJ-4" target="98AAtf0gcxnXVKYXleeJ-5">
          <mxGeometry relative="1" as="geometry" />
        </mxCell>
        <mxCell id="98AAtf0gcxnXVKYXleeJ-10" style="edgeStyle=orthogonalEdgeStyle;rounded=0;orthogonalLoop=1;jettySize=auto;html=1;exitX=0.5;exitY=1;exitDx=0;exitDy=0;" edge="1" parent="1" source="98AAtf0gcxnXVKYXleeJ-4" target="98AAtf0gcxnXVKYXleeJ-6">
          <mxGeometry relative="1" as="geometry">
            <Array as="points">
              <mxPoint x="740" y="190" />
              <mxPoint x="340" y="190" />
            </Array>
          </mxGeometry>
        </mxCell>
        <mxCell id="98AAtf0gcxnXVKYXleeJ-4" value="Load balancer" style="rounded=1;whiteSpace=wrap;html=1;" vertex="1" parent="1">
          <mxGeometry x="680" y="80" width="120" height="60" as="geometry" />
        </mxCell>
        <mxCell id="98AAtf0gcxnXVKYXleeJ-22" style="edgeStyle=orthogonalEdgeStyle;rounded=0;orthogonalLoop=1;jettySize=auto;html=1;exitX=0.5;exitY=1;exitDx=0;exitDy=0;" edge="1" parent="1" source="98AAtf0gcxnXVKYXleeJ-5" target="98AAtf0gcxnXVKYXleeJ-21">
          <mxGeometry relative="1" as="geometry" />
        </mxCell>
        <mxCell id="98AAtf0gcxnXVKYXleeJ-5" value="Suggestion service" style="rounded=1;whiteSpace=wrap;html=1;" vertex="1" parent="1">
          <mxGeometry x="80" y="240" width="120" height="60" as="geometry" />
        </mxCell>
        <mxCell id="98AAtf0gcxnXVKYXleeJ-14" style="edgeStyle=orthogonalEdgeStyle;rounded=0;orthogonalLoop=1;jettySize=auto;html=1;exitX=0.5;exitY=1;exitDx=0;exitDy=0;" edge="1" parent="1" source="98AAtf0gcxnXVKYXleeJ-6" target="98AAtf0gcxnXVKYXleeJ-12">
          <mxGeometry relative="1" as="geometry" />
        </mxCell>
        <mxCell id="98AAtf0gcxnXVKYXleeJ-6" value="Collection service" style="rounded=1;whiteSpace=wrap;html=1;" vertex="1" parent="1">
          <mxGeometry x="280" y="240" width="120" height="60" as="geometry" />
        </mxCell>
        <mxCell id="98AAtf0gcxnXVKYXleeJ-16" style="edgeStyle=orthogonalEdgeStyle;rounded=0;orthogonalLoop=1;jettySize=auto;html=1;exitX=0.5;exitY=1;exitDx=0;exitDy=0;" edge="1" parent="1" source="98AAtf0gcxnXVKYXleeJ-7" target="98AAtf0gcxnXVKYXleeJ-13">
          <mxGeometry relative="1" as="geometry" />
        </mxCell>
        <mxCell id="98AAtf0gcxnXVKYXleeJ-18" style="edgeStyle=orthogonalEdgeStyle;rounded=0;orthogonalLoop=1;jettySize=auto;html=1;exitX=0;exitY=0.5;exitDx=0;exitDy=0;entryX=1;entryY=0.5;entryDx=0;entryDy=0;" edge="1" parent="1" source="98AAtf0gcxnXVKYXleeJ-7" target="98AAtf0gcxnXVKYXleeJ-12">
          <mxGeometry relative="1" as="geometry" />
        </mxCell>
        <mxCell id="98AAtf0gcxnXVKYXleeJ-7" value="Aggregator" style="rounded=1;whiteSpace=wrap;html=1;" vertex="1" parent="1">
          <mxGeometry x="480" y="240" width="120" height="60" as="geometry" />
        </mxCell>
        <mxCell id="98AAtf0gcxnXVKYXleeJ-20" style="edgeStyle=orthogonalEdgeStyle;rounded=0;orthogonalLoop=1;jettySize=auto;html=1;exitX=0.5;exitY=1;exitDx=0;exitDy=0;entryX=1;entryY=0.5;entryDx=0;entryDy=0;" edge="1" parent="1" source="98AAtf0gcxnXVKYXleeJ-8" target="98AAtf0gcxnXVKYXleeJ-13">
          <mxGeometry relative="1" as="geometry" />
        </mxCell>
        <mxCell id="98AAtf0gcxnXVKYXleeJ-34" style="edgeStyle=orthogonalEdgeStyle;rounded=0;orthogonalLoop=1;jettySize=auto;html=1;exitX=1;exitY=0.5;exitDx=0;exitDy=0;entryX=1;entryY=0.5;entryDx=0;entryDy=0;" edge="1" parent="1" source="98AAtf0gcxnXVKYXleeJ-8" target="98AAtf0gcxnXVKYXleeJ-25">
          <mxGeometry relative="1" as="geometry" />
        </mxCell>
        <mxCell id="98AAtf0gcxnXVKYXleeJ-8" value="Trie builder" style="rounded=1;whiteSpace=wrap;html=1;" vertex="1" parent="1">
          <mxGeometry x="680" y="240" width="120" height="60" as="geometry" />
        </mxCell>
        <mxCell id="98AAtf0gcxnXVKYXleeJ-15" style="edgeStyle=orthogonalEdgeStyle;rounded=0;orthogonalLoop=1;jettySize=auto;html=1;exitX=0.5;exitY=0;exitDx=0;exitDy=0;entryX=0.5;entryY=1;entryDx=0;entryDy=0;" edge="1" parent="1" source="98AAtf0gcxnXVKYXleeJ-12" target="98AAtf0gcxnXVKYXleeJ-6">
          <mxGeometry relative="1" as="geometry" />
        </mxCell>
        <mxCell id="98AAtf0gcxnXVKYXleeJ-17" style="edgeStyle=orthogonalEdgeStyle;rounded=0;orthogonalLoop=1;jettySize=auto;html=1;exitX=1;exitY=0.5;exitDx=0;exitDy=0;entryX=0;entryY=0.5;entryDx=0;entryDy=0;" edge="1" parent="1" source="98AAtf0gcxnXVKYXleeJ-12" target="98AAtf0gcxnXVKYXleeJ-7">
          <mxGeometry relative="1" as="geometry" />
        </mxCell>
        <mxCell id="98AAtf0gcxnXVKYXleeJ-12" value="HDFS" style="rounded=1;whiteSpace=wrap;html=1;" vertex="1" parent="1">
          <mxGeometry x="280" y="360" width="120" height="60" as="geometry" />
        </mxCell>
        <mxCell id="98AAtf0gcxnXVKYXleeJ-19" style="edgeStyle=orthogonalEdgeStyle;rounded=0;orthogonalLoop=1;jettySize=auto;html=1;exitX=1;exitY=0.5;exitDx=0;exitDy=0;" edge="1" parent="1" source="98AAtf0gcxnXVKYXleeJ-13" target="98AAtf0gcxnXVKYXleeJ-8">
          <mxGeometry relative="1" as="geometry" />
        </mxCell>
        <mxCell id="98AAtf0gcxnXVKYXleeJ-13" value="Cassandra" style="rounded=1;whiteSpace=wrap;html=1;" vertex="1" parent="1">
          <mxGeometry x="480" y="360" width="120" height="60" as="geometry" />
        </mxCell>
        <mxCell id="98AAtf0gcxnXVKYXleeJ-23" style="edgeStyle=orthogonalEdgeStyle;rounded=0;orthogonalLoop=1;jettySize=auto;html=1;exitX=0.5;exitY=0;exitDx=0;exitDy=0;entryX=0.5;entryY=1;entryDx=0;entryDy=0;" edge="1" parent="1" source="98AAtf0gcxnXVKYXleeJ-21" target="98AAtf0gcxnXVKYXleeJ-5">
          <mxGeometry relative="1" as="geometry" />
        </mxCell>
        <mxCell id="98AAtf0gcxnXVKYXleeJ-28" style="edgeStyle=orthogonalEdgeStyle;rounded=0;orthogonalLoop=1;jettySize=auto;html=1;exitX=0.5;exitY=1;exitDx=0;exitDy=0;entryX=0.5;entryY=0;entryDx=0;entryDy=0;" edge="1" parent="1" source="98AAtf0gcxnXVKYXleeJ-21" target="98AAtf0gcxnXVKYXleeJ-24">
          <mxGeometry relative="1" as="geometry" />
        </mxCell>
        <mxCell id="98AAtf0gcxnXVKYXleeJ-30" style="edgeStyle=orthogonalEdgeStyle;rounded=0;orthogonalLoop=1;jettySize=auto;html=1;exitX=1;exitY=0.5;exitDx=0;exitDy=0;entryX=0.5;entryY=0;entryDx=0;entryDy=0;" edge="1" parent="1" source="98AAtf0gcxnXVKYXleeJ-21" target="98AAtf0gcxnXVKYXleeJ-25">
          <mxGeometry relative="1" as="geometry">
            <Array as="points">
              <mxPoint x="240" y="390" />
              <mxPoint x="240" y="440" />
              <mxPoint x="340" y="440" />
            </Array>
          </mxGeometry>
        </mxCell>
        <mxCell id="98AAtf0gcxnXVKYXleeJ-21" value="Trie cache (Redis)" style="rounded=1;whiteSpace=wrap;html=1;" vertex="1" parent="1">
          <mxGeometry x="80" y="360" width="120" height="60" as="geometry" />
        </mxCell>
        <mxCell id="98AAtf0gcxnXVKYXleeJ-26" style="edgeStyle=orthogonalEdgeStyle;rounded=0;orthogonalLoop=1;jettySize=auto;html=1;exitX=1;exitY=0.5;exitDx=0;exitDy=0;entryX=0;entryY=0.5;entryDx=0;entryDy=0;" edge="1" parent="1" source="98AAtf0gcxnXVKYXleeJ-24" target="98AAtf0gcxnXVKYXleeJ-25">
          <mxGeometry relative="1" as="geometry" />
        </mxCell>
        <mxCell id="98AAtf0gcxnXVKYXleeJ-29" style="edgeStyle=orthogonalEdgeStyle;rounded=0;orthogonalLoop=1;jettySize=auto;html=1;exitX=0.5;exitY=0;exitDx=0;exitDy=0;entryX=0.5;entryY=1;entryDx=0;entryDy=0;" edge="1" parent="1" source="98AAtf0gcxnXVKYXleeJ-24" target="98AAtf0gcxnXVKYXleeJ-21">
          <mxGeometry relative="1" as="geometry" />
        </mxCell>
        <mxCell id="98AAtf0gcxnXVKYXleeJ-24" value="NoSQL" style="rounded=1;whiteSpace=wrap;html=1;" vertex="1" parent="1">
          <mxGeometry x="80" y="480" width="120" height="60" as="geometry" />
        </mxCell>
        <mxCell id="98AAtf0gcxnXVKYXleeJ-27" style="edgeStyle=orthogonalEdgeStyle;rounded=0;orthogonalLoop=1;jettySize=auto;html=1;exitX=0;exitY=0.5;exitDx=0;exitDy=0;entryX=1;entryY=0.5;entryDx=0;entryDy=0;" edge="1" parent="1" source="98AAtf0gcxnXVKYXleeJ-25" target="98AAtf0gcxnXVKYXleeJ-24">
          <mxGeometry relative="1" as="geometry" />
        </mxCell>
        <mxCell id="98AAtf0gcxnXVKYXleeJ-33" style="edgeStyle=orthogonalEdgeStyle;rounded=0;orthogonalLoop=1;jettySize=auto;html=1;exitX=0.5;exitY=0;exitDx=0;exitDy=0;entryX=1;entryY=0.5;entryDx=0;entryDy=0;" edge="1" parent="1" source="98AAtf0gcxnXVKYXleeJ-25" target="98AAtf0gcxnXVKYXleeJ-21">
          <mxGeometry relative="1" as="geometry">
            <Array as="points">
              <mxPoint x="340" y="440" />
              <mxPoint x="240" y="440" />
              <mxPoint x="240" y="390" />
            </Array>
          </mxGeometry>
        </mxCell>
        <mxCell id="98AAtf0gcxnXVKYXleeJ-35" style="edgeStyle=orthogonalEdgeStyle;rounded=0;orthogonalLoop=1;jettySize=auto;html=1;exitX=1;exitY=0.5;exitDx=0;exitDy=0;entryX=1;entryY=0.5;entryDx=0;entryDy=0;" edge="1" parent="1" source="98AAtf0gcxnXVKYXleeJ-25" target="98AAtf0gcxnXVKYXleeJ-8">
          <mxGeometry relative="1" as="geometry" />
        </mxCell>
        <mxCell id="98AAtf0gcxnXVKYXleeJ-25" value="Zookeeper" style="rounded=1;whiteSpace=wrap;html=1;" vertex="1" parent="1">
          <mxGeometry x="280" y="480" width="120" height="60" as="geometry" />
        </mxCell>
      </root>
    </mxGraphModel>
  </diagram>
</mxfile>
